<svg width="1500" height="500" viewBox="0 0 1500 500" fill="none" xmlns="http://www.w3.org/2000/svg">
<rect width="1500" height="500" fill="black"/>
<line x1="32" y1="408" x2="282" y2="408" stroke="white" stroke-width="10"/>
<line x1="1229" y1="408" x2="1479" y2="408" stroke="white" stroke-width="10"/>
<path d="M172.468 294C172.468 289.345 170.775 286.7 167.39 286.065C166.332 285.854 165.274 285.748 164.216 285.748H142.634V111.822H161.042C178.181 111.822 189.606 122.19 195.319 142.926C195.319 143.772 195.425 144.407 195.637 144.83L200.715 166.095H209.602L208.015 103.57H51.2275L49.6406 166.095H58.5273L63.6055 144.83C70.3763 124.094 81.9079 113.092 98.2002 111.822H115.339V285.748H85.1875V294H172.468ZM299.738 163.873C314.549 163.873 324.388 170.115 329.255 182.599C330.948 186.619 331.794 190.956 331.794 195.611C331.794 206.191 326.716 212.644 316.56 214.972C311.27 216.03 303.758 216.453 294.025 216.241L260.383 215.289C261.441 190.956 269.375 175.087 284.187 167.682C289.053 165.143 294.237 163.873 299.738 163.873ZM354.963 263.531L347.028 260.675C339.623 276.756 327.668 285.854 311.164 287.97C309.048 288.181 307.038 288.287 305.134 288.287C282.917 288.287 268.952 275.063 263.239 248.614C261.547 241.209 260.594 233.062 260.383 224.176L298.469 224.811C324.283 225.234 340.892 222.8 348.298 217.511C354.011 213.279 356.867 207.249 356.867 199.42C356.867 185.032 349.567 173.606 334.968 165.143C324.6 159.007 312.645 155.938 299.104 155.938C272.655 155.938 253.718 166.941 242.292 188.946C236.368 200.372 233.405 213.279 233.405 227.667C233.405 253.904 242.821 273.37 261.652 286.065C272.867 293.471 285.668 297.174 300.056 297.174C322.907 297.174 339.729 288.922 350.52 272.418C352.212 269.456 353.693 266.493 354.963 263.531ZM448.591 286.065H425.739V222.906C425.739 203.652 431.664 188.206 443.513 176.568C448.168 172.125 452.082 169.798 455.256 169.586C458.853 169.586 462.132 172.231 465.095 177.521C468.48 183.445 471.654 186.83 474.616 187.677C475.886 188.1 477.155 188.312 478.425 188.312C484.772 188.312 488.793 185.243 490.485 179.107C490.909 177.838 491.12 176.568 491.12 175.299C491.12 165.777 486.254 159.959 476.521 157.843C474.405 157.42 472.395 157.208 470.49 157.208C457.795 157.208 446.475 162.604 436.53 173.395C431.875 178.473 428.173 184.186 425.422 190.533L424.152 159.112H378.132V167.047H401.936V267.022C401.936 276.756 399.185 282.574 393.684 284.479C390.51 285.536 385.326 286.065 378.132 286.065V294H456.525C456.525 289.345 454.938 286.806 451.765 286.383C450.918 286.171 449.86 286.065 448.591 286.065ZM573.322 286.065H550.471V222.906C550.471 203.652 556.395 188.206 568.244 176.568C572.899 172.125 576.813 169.798 579.987 169.586C583.584 169.586 586.864 172.231 589.826 177.521C593.212 183.445 596.385 186.83 599.348 187.677C600.617 188.1 601.887 188.312 603.156 188.312C609.504 188.312 613.524 185.243 615.217 179.107C615.64 177.838 615.852 176.568 615.852 175.299C615.852 165.777 610.985 159.959 601.252 157.843C599.136 157.42 597.126 157.208 595.222 157.208C582.526 157.208 571.206 162.604 561.262 173.395C556.607 178.473 552.904 184.186 550.153 190.533L548.884 159.112H502.863V167.047H526.667V267.022C526.667 276.756 523.916 282.574 518.415 284.479C515.241 285.536 510.057 286.065 502.863 286.065V294H581.257C581.257 289.345 579.67 286.806 576.496 286.383C575.65 286.171 574.592 286.065 573.322 286.065ZM741.535 297.174C757.827 297.174 766.82 287.335 768.513 267.657C768.724 266.388 768.83 265.224 768.83 264.166L760.578 263.849C759.097 279.295 754.971 287.123 748.2 287.335C742.699 286.912 739.842 281.41 739.631 270.831V203.863C739.631 173.606 724.502 157.631 694.245 155.938C692.341 155.938 690.437 155.938 688.532 155.938C664.834 155.938 648.965 161.44 640.925 172.442C638.386 176.039 637.116 179.636 637.116 183.233C637.116 189.793 640.184 193.601 646.32 194.659C647.378 194.871 648.436 194.977 649.494 194.977C654.361 194.977 657.958 191.909 660.285 185.772C663.247 177.944 665.257 173.289 666.315 171.808C670.336 166.518 676.577 163.873 685.041 163.873C704.93 165.143 715.192 176.039 715.827 196.563V216.559C666.104 216.559 637.645 226.926 630.451 247.662C629.182 251.682 628.547 256.02 628.547 260.675C628.547 276.756 635.635 287.758 649.812 293.683C655.524 296.01 661.555 297.174 667.902 297.174C683.348 297.174 696.361 291.884 706.94 281.305C710.749 277.285 713.605 273.053 715.51 268.609C718.049 287.441 726.724 296.962 741.535 297.174ZM678.376 284.479C665.469 284.479 657.535 278.025 654.572 265.118C653.938 262.156 653.62 258.876 653.62 255.279C653.62 241.103 661.766 232.11 678.059 228.302C686.734 226.397 699.323 225.34 715.827 225.128V250.519C712.653 265.118 704.93 275.38 692.658 281.305C687.792 283.421 683.031 284.479 678.376 284.479ZM966.242 294C966.242 289.345 964.549 286.7 961.164 286.065C960.106 285.854 959.048 285.748 957.99 285.748H936.408V111.822H954.816C971.955 111.822 983.381 122.19 989.094 142.926C989.094 143.772 989.2 144.407 989.411 144.83L994.489 166.095H1003.38L1001.79 103.57H845.002L843.415 166.095H852.302L857.38 144.83C864.151 124.094 875.682 113.092 891.975 111.822H909.113V285.748H878.962V294H966.242ZM1089.07 286.065H1073.2V159.112H1024.01V167.047H1049.4V267.022C1049.4 276.756 1046.12 282.68 1039.56 284.796C1036.38 285.642 1031.2 286.065 1024.01 286.065V294H1097C1097 289.345 1095.42 286.806 1092.24 286.383C1091.19 286.171 1090.13 286.065 1089.07 286.065ZM1077.01 112.774C1077.01 105.369 1073.73 100.079 1067.17 96.9053C1064.63 95.8473 1062.2 95.3184 1059.87 95.3184C1052.46 95.3184 1047.17 98.7038 1044 105.475C1042.94 107.802 1042.41 110.235 1042.41 112.774C1042.41 120.603 1045.91 125.999 1052.89 128.961C1055.22 129.807 1057.54 130.23 1059.87 130.23C1067.28 130.23 1072.46 126.845 1075.42 120.074C1076.48 117.747 1077.01 115.313 1077.01 112.774ZM1181.75 286.065H1164.61V87.7012H1117V95.6357H1140.8V267.022C1140.8 276.756 1138.05 282.574 1132.55 284.479C1129.38 285.536 1124.19 286.065 1117 286.065V294H1189.68C1189.68 289.345 1188.09 286.806 1184.92 286.383C1184.07 286.171 1183.01 286.065 1181.75 286.065ZM1277.28 163.873C1292.09 163.873 1301.93 170.115 1306.79 182.599C1308.49 186.619 1309.33 190.956 1309.33 195.611C1309.33 206.191 1304.25 212.644 1294.1 214.972C1288.81 216.03 1281.3 216.453 1271.56 216.241L1237.92 215.289C1238.98 190.956 1246.91 175.087 1261.73 167.682C1266.59 165.143 1271.78 163.873 1277.28 163.873ZM1332.5 263.531L1324.57 260.675C1317.16 276.756 1305.21 285.854 1288.7 287.97C1286.59 288.181 1284.58 288.287 1282.67 288.287C1260.46 288.287 1246.49 275.063 1240.78 248.614C1239.09 241.209 1238.13 233.062 1237.92 224.176L1276.01 224.811C1301.82 225.234 1318.43 222.8 1325.84 217.511C1331.55 213.279 1334.41 207.249 1334.41 199.42C1334.41 185.032 1327.11 173.606 1312.51 165.143C1302.14 159.007 1290.18 155.938 1276.64 155.938C1250.19 155.938 1231.26 166.941 1219.83 188.946C1213.91 200.372 1210.94 213.279 1210.94 227.667C1210.94 253.904 1220.36 273.37 1239.19 286.065C1250.41 293.471 1263.21 297.174 1277.59 297.174C1300.45 297.174 1317.27 288.922 1328.06 272.418C1329.75 269.456 1331.23 266.493 1332.5 263.531ZM1405.82 288.604C1420.42 288.604 1430.26 284.161 1435.33 275.274C1437.24 272.101 1438.19 268.609 1438.19 264.801C1438.19 255.914 1431.74 248.297 1418.83 241.949C1416.08 240.468 1411.53 238.352 1405.18 235.602C1387.83 228.408 1376.3 221.637 1370.59 215.289C1364.45 208.307 1361.38 200.16 1361.38 190.851C1361.38 176.251 1369.42 165.989 1385.5 160.064C1392.91 157.314 1400.95 155.938 1409.63 155.938C1423.59 155.938 1435.65 158.901 1445.81 164.825C1445.81 158.689 1447.29 155.198 1450.25 154.352C1451.52 154.14 1452.9 154.034 1454.38 154.034V193.707H1446.12C1445.7 174.241 1434.91 164.402 1413.75 164.19C1397.88 164.19 1388.04 168.845 1384.24 178.155C1383.18 180.694 1382.65 183.339 1382.65 186.09C1382.65 195.188 1389.21 202.911 1402.33 209.259C1405.29 210.74 1409.94 212.75 1416.29 215.289C1433.43 222.271 1444.86 228.937 1450.57 235.284C1456.7 242.055 1459.77 250.095 1459.77 259.405C1459.77 276.544 1450.67 287.97 1432.48 293.683C1425.5 296.01 1417.88 297.174 1409.63 297.174C1394.39 296.962 1381.17 293.154 1369.95 285.748C1369.95 291.249 1368.58 294.423 1365.83 295.27C1364.56 295.481 1363.08 295.587 1361.38 295.587V247.345H1370.27C1370.69 274.64 1382.54 288.393 1405.82 288.604Z" fill="white"/>
<path d="M442.441 383.086H418.676V449H408.977V383.086H385.262V375.062H442.441V383.086ZM495.203 414.824H463.16V441.027H500.383V449H453.41V375.062H499.875V383.086H463.16V406.852H495.203V414.824ZM539.637 419.09H522.27V449H512.469V375.062H536.945C545.273 375.062 551.672 376.958 556.141 380.75C560.643 384.542 562.895 390.06 562.895 397.305C562.895 401.909 561.642 405.921 559.137 409.34C556.665 412.759 553.212 415.315 548.777 417.008L566.145 448.391V449H555.684L539.637 419.09ZM522.27 411.117H537.25C542.091 411.117 545.934 409.865 548.777 407.359C551.655 404.854 553.094 401.503 553.094 397.305C553.094 392.734 551.723 389.23 548.98 386.793C546.272 384.355 542.345 383.12 537.199 383.086H522.27V411.117ZM603.723 419.09H586.355V449H576.555V375.062H601.031C609.359 375.062 615.758 376.958 620.227 380.75C624.729 384.542 626.98 390.06 626.98 397.305C626.98 401.909 625.728 405.921 623.223 409.34C620.751 412.759 617.298 415.315 612.863 417.008L630.23 448.391V449H619.77L603.723 419.09ZM586.355 411.117H601.336C606.177 411.117 610.02 409.865 612.863 407.359C615.741 404.854 617.18 401.503 617.18 397.305C617.18 392.734 615.809 389.23 613.066 386.793C610.358 384.355 606.431 383.12 601.285 383.086H586.355V411.117ZM681.52 429.703H650.543L643.586 449H633.531L661.766 375.062H670.297L698.582 449H688.578L681.52 429.703ZM653.488 421.68H678.625L666.031 387.098L653.488 421.68ZM753.02 383.086H729.254V449H719.555V383.086H695.84V375.062H753.02V383.086ZM774.449 449H764.699V375.062H774.449V449ZM802.125 441.027H837.164V449H792.324V375.062H802.125V441.027ZM890.078 414.824H858.035V441.027H895.258V449H848.285V375.062H894.75V383.086H858.035V406.852H890.078V414.824ZM929.18 416.043C920.818 413.639 914.724 410.694 910.898 407.207C907.107 403.686 905.211 399.353 905.211 394.207C905.211 388.384 907.53 383.577 912.168 379.785C916.84 375.96 922.9 374.047 930.348 374.047C935.426 374.047 939.945 375.029 943.906 376.992C947.901 378.956 950.982 381.664 953.148 385.117C955.349 388.57 956.449 392.345 956.449 396.441H946.648C946.648 391.973 945.227 388.469 942.383 385.93C939.539 383.357 935.527 382.07 930.348 382.07C925.54 382.07 921.783 383.137 919.074 385.27C916.4 387.368 915.062 390.297 915.062 394.055C915.062 397.068 916.332 399.624 918.871 401.723C921.444 403.788 925.794 405.684 931.922 407.41C938.083 409.137 942.891 411.049 946.344 413.148C949.831 415.214 952.404 417.634 954.062 420.41C955.755 423.186 956.602 426.453 956.602 430.211C956.602 436.203 954.266 441.01 949.594 444.633C944.922 448.221 938.676 450.016 930.855 450.016C925.777 450.016 921.038 449.051 916.637 447.121C912.236 445.158 908.833 442.483 906.43 439.098C904.06 435.712 902.875 431.87 902.875 427.57H912.676C912.676 432.039 914.318 435.577 917.602 438.184C920.919 440.757 925.337 442.043 930.855 442.043C936.001 442.043 939.945 440.993 942.688 438.895C945.43 436.796 946.801 433.935 946.801 430.312C946.801 426.69 945.531 423.897 942.992 421.934C940.453 419.936 935.849 417.973 929.18 416.043ZM967.875 444.074C967.875 442.449 968.349 441.095 969.297 440.012C970.279 438.928 971.734 438.387 973.664 438.387C975.594 438.387 977.049 438.928 978.031 440.012C979.047 441.095 979.555 442.449 979.555 444.074C979.555 445.632 979.047 446.935 978.031 447.984C977.049 449.034 975.594 449.559 973.664 449.559C971.734 449.559 970.279 449.034 969.297 447.984C968.349 446.935 967.875 445.632 967.875 444.074ZM1050.95 425.539C1050.04 433.359 1047.14 439.402 1042.27 443.668C1037.43 447.9 1030.98 450.016 1022.92 450.016C1014.19 450.016 1007.18 446.884 1001.9 440.621C996.651 434.358 994.027 425.979 994.027 415.484V408.375C994.027 401.503 995.246 395.46 997.684 390.246C1000.15 385.033 1003.64 381.038 1008.14 378.262C1012.65 375.452 1017.86 374.047 1023.79 374.047C1031.64 374.047 1037.94 376.247 1042.68 380.648C1047.42 385.016 1050.17 391.076 1050.95 398.828H1041.15C1040.31 392.938 1038.46 388.672 1035.62 386.031C1032.81 383.391 1028.86 382.07 1023.79 382.07C1017.56 382.07 1012.66 384.372 1009.11 388.977C1005.59 393.581 1003.83 400.132 1003.83 408.629V415.789C1003.83 423.812 1005.5 430.194 1008.86 434.934C1012.21 439.673 1016.9 442.043 1022.92 442.043C1028.34 442.043 1032.49 440.824 1035.36 438.387C1038.27 435.915 1040.2 431.633 1041.15 425.539H1050.95ZM1121.18 414.418C1121.18 421.663 1119.96 427.993 1117.53 433.41C1115.09 438.793 1111.64 442.906 1107.17 445.75C1102.7 448.594 1097.49 450.016 1091.53 450.016C1085.7 450.016 1080.54 448.594 1076.04 445.75C1071.54 442.872 1068.03 438.793 1065.53 433.512C1063.06 428.197 1061.79 422.052 1061.72 415.078V409.746C1061.72 402.637 1062.95 396.357 1065.43 390.906C1067.9 385.456 1071.38 381.292 1075.89 378.414C1080.42 375.503 1085.6 374.047 1091.43 374.047C1097.35 374.047 1102.56 375.486 1107.07 378.363C1111.6 381.207 1115.09 385.354 1117.53 390.805C1119.96 396.221 1121.18 402.535 1121.18 409.746V414.418ZM1111.48 409.645C1111.48 400.876 1109.72 394.156 1106.2 389.484C1102.68 384.779 1097.76 382.426 1091.43 382.426C1085.26 382.426 1080.41 384.779 1076.85 389.484C1073.33 394.156 1071.52 400.656 1071.42 408.984V414.418C1071.42 422.915 1073.2 429.602 1076.75 434.477C1080.34 439.318 1085.26 441.738 1091.53 441.738C1097.82 441.738 1102.7 439.453 1106.15 434.883C1109.61 430.279 1111.38 423.694 1111.48 415.129V409.645Z" fill="white"/>
</svg>
